PathFileType	4	(x/y/z)	S04_P20_T07.trc
DataRate	CameraRate	NumFrames	NumMarkers	Units	OrigDataRate	OrigDataStartFrame	OrigNumFrames
240	240	4	51	mm	240	277	369
Frame#	Time	Sternum			R.Acromium			L.Acromium			Top.Head			R.ASIS			L.ASIS			R.PSIS			L.PSIS			R.Great.Tro			L.Great.Tro			R.Iliac.Crest			L.Iliac.Crest			V.Sacral			R.Thigh.Upper.Post			R.Thigh.Lower.Ant			R.Thigh.Lower.Post			R.Thigh.Upper.Ant			R.Knee.Lat			R.Knee.Med			R.Shank.Upper.Post			R.Shank.Lower.Ant			R.Shank.Lower.Post			R.Shank.Upper.Ant			R.Ankle.Lat			R.Ankle.Med			R.Heel.Upper			R.Heel.Med			R.Heel.Lat			R.Toe.Lat			R.Toe.Med			R.Toe.Tip			L.Thigh.Upper.Post			L.Thigh.Lower.Ant			L.Thigh.Lower.Post			L.Thigh.Upper.Ant			L.Knee.Lat			L.Knee.Med			L.Shank.Upper.Post			L.Shank.Lower.Ant			L.Shank.Lower.Post			L.Shank.Upper.Ant			L.Ankle.Lat			L.Ankle.Med			L.Heel.Upper			L.Heel.Med			L.Heel.Lat			L.Toe.Lat			L.Toe.Med			L.Toe.Tip			Cervical.Spine			Back			
		X1	Y1	Z1	X2	Y2	Z2	X3	Y3	Z3	X4	Y4	Z4	X5	Y5	Z5	X6	Y6	Z6	X7	Y7	Z7	X8	Y8	Z8	X9	Y9	Z9	X10	Y10	Z10	X11	Y11	Z11	X12	Y12	Z12	X13	Y13	Z13	X14	Y14	Z14	X15	Y15	Z15	X16	Y16	Z16	X17	Y17	Z17	X18	Y18	Z18	X19	Y19	Z19	X20	Y20	Z20	X21	Y21	Z21	X22	Y22	Z22	X23	Y23	Z23	X24	Y24	Z24	X25	Y25	Z25	X26	Y26	Z26	X27	Y27	Z27	X28	Y28	Z28	X29	Y29	Z29	X30	Y30	Z30	X31	Y31	Z31	X32	Y32	Z32	X33	Y33	Z33	X34	Y34	Z34	X35	Y35	Z35	X36	Y36	Z36	X37	Y37	Z37	X38	Y38	Z38	X39	Y39	Z39	X40	Y40	Z40	X41	Y41	Z41	X42	Y42	Z42	X43	Y43	Z43	X44	Y44	Z44	X45	Y45	Z45	X46	Y46	Z46	X47	Y47	Z47	X48	Y48	Z48	X49	Y49	Z49	X50	Y50	Z50	X51	Y51	Z51	

277	1.15	120.88	1277.2	231.02	2.1812	1503.7	410.65	-26.198	1485.1	60.676	8.3179	1829.4	220.82	85.469	987.88	374.52	93.267	1016.9	125.96	-124.76	1018.9	267.75	-115.72	1028.3	187.01	-4.2557	902.81	430.26	-11.116	925.42	53.101	-1.9375	1079.8	414.91	-10.7	1090.7	76.921	-139.92	981.3	224.45	31.725	644.77	427.95	122.67	574.02	409.18	46.645	555.59	415.29	112.65	683.42	425.46	66.598	490.34	410.8	69.435	486.82	275.34	-135.73	381.33	391.77	-141.64	277.21	355.53	-185.25	332.71	375.67	-94.732	328.09	379.76	-260.96	248.71	353.12	-223.07	233.74	269.73	-317.4	270.05	285.97	-327.73	241.54	253.96	-344.71	247.47	317.7	-248.56	120.2	391.87	-201.09	88.315	285.04	-153.33	59.228	343.76	23.846	684.79	68.433	123.8	609.71	80.719	51.498	601.97	84.824	91.604	692	61.257	110.67	518.28	97.596	103.87	508.82	220.71	34.363	333.14	93.884	107.33	249.86	104.32	42.952	256.03	103.42	99.189	325.56	94.428	88.122	99.032	121.36	88.933	111.04	215.74	11.666	68.913	166.83	17.777	45.888	202.77	15.995	39.524	140.68	201	42.926	107.05	229.27	55.627	222.52	286.88	68.076	174.6	-63.151	1548.8	243.49	-139.35	1288.8	231.21
278	1.1542	126.05	1277.8	231.18	6.9364	1504.5	410.32	-20.248	1485.7	60.23	13.711	1830.1	220.32	90.331	988.7	374.3	98.243	1017.5	125.73	-119.91	1019.6	267.42	-110.75	1029	186.69	0.76341	903.66	430.12	-6.3339	926.01	52.909	2.7436	1080.6	414.6	-5.52	1091.4	76.67	-135.05	982.04	224.09	39.473	645.97	427.83	131.2	576.17	409.3	55.343	556.94	415.2	120	685.45	425.57	76.042	492.08	410.84	79.253	488.52	275.37	-125.61	382.16	391.4	-130.85	277.87	355.69	-174.8	333.21	375.4	-84.306	329.09	379.79	-249.96	248.79	352.84	-211.82	233.57	269.66	-306.5	269.05	285.29	-316.48	240.11	253.56	-333.65	246.53	317.2	-236.53	120.98	392.8	-188.55	88.439	286.35	-140.67	60.229	345.47	27.12	685.25	68.421	126.53	609.57	80.707	54.184	602.32	84.762	94.892	692.07	61.246	112.7	518.15	97.605	105.78	508.75	220.76	35.409	333.36	94.072	108.05	249.78	104.38	43.712	256.21	103.63	100.2	325.51	94.496	88.234	99.127	121.52	89.076	111.04	215.88	11.68	68.984	166.92	17.789	45.905	202.82	16.025	39.636	140.74	201.03	42.927	107.03	229.34	55.353	222.57	286.94	67.777	174.65	-57.812	1549.6	242.9	-134.19	1289.6	230.43
279	1.1583	131.21	1278.4	231.36	11.682	1505.3	409.99	-14.31	1486.4	59.802	19.122	1830.8	219.84	95.19	989.55	374.1	103.2	1018	125.51	-115.06	1020.3	267.11	-105.8	1029.7	186.39	5.7775	904.57	430	-1.586	926.6	52.738	7.425	1081.4	414.29	-0.35171	1092.2	76.431	-130.19	982.79	223.75	47.164	647.23	427.72	139.64	578.36	409.4	63.966	558.36	415.11	127.3	687.53	425.66	85.401	493.88	410.87	88.939	490.29	275.4	-115.44	382.78	391.06	-119.88	278.33	355.85	-164.24	333.43	375.14	-73.77	329.93	379.83	-238.72	248.47	352.6	-200.35	233.1	269.6	-295.42	267.61	284.68	-305.01	238.23	253.24	-322.35	245.08	316.79	-224.05	121.37	393.69	-175.59	88.326	287.57	-127.52	61.077	347.04	30.335	685.72	68.423	129.2	609.44	80.703	56.806	602.68	84.702	98.128	692.14	61.247	114.66	518.02	97.62	107.65	508.69	220.81	36.403	333.57	94.25	108.72	249.7	104.44	44.438	256.38	103.83	101.17	325.47	94.562	88.341	99.224	121.69	89.213	111.05	216.03	11.691	69.057	167.01	17.796	45.923	202.87	16.053	39.749	140.79	201.07	42.927	107.01	229.4	55.093	222.61	286.99	67.493	174.69	-52.476	1550.4	242.32	-129.04	1290.5	229.65
280	1.1625	136.35	1279.1	231.53	16.419	1506.1	409.68	-8.3837	1487.1	59.392	24.55	1831.6	219.37	100.05	990.44	373.9	108.15	1018.6	125.29	-110.21	1021.1	266.82	-100.84	1030.5	186.12	10.791	905.53	429.9	3.1287	927.19	52.585	12.109	1082.2	414	4.8082	1092.9	76.203	-125.32	983.57	223.45	54.802	648.54	427.62	148	580.6	409.45	72.512	559.84	415.02	134.54	689.63	425.73	94.674	495.72	410.87	98.489	492.14	275.41	-105.23	383.17	390.74	-108.73	278.57	356.02	-153.57	333.37	374.92	-63.128	330.61	379.89	-227.25	247.76	352.4	-188.66	232.34	269.56	-284.14	265.72	284.16	-293.33	235.93	253	-310.82	243.14	316.45	-211.16	121.4	394.54	-162.21	87.987	288.71	-113.9	61.769	348.48	33.495	686.21	68.436	131.8	609.3	80.706	59.368	603.04	84.643	101.32	692.22	61.258	116.56	517.9	97.639	109.49	508.64	220.86	37.351	333.79	94.416	109.37	249.64	104.5	45.136	256.55	104.03	102.09	325.43	94.623	88.444	99.321	121.84	89.345	111.06	216.16	11.7	69.133	167.1	17.798	45.944	202.91	16.081	39.863	140.84	201.09	42.927	106.99	229.45	54.844	222.66	287.04	67.221	174.73	-47.143	1551.2	241.75	-123.89	1291.4	228.88
